# AST/ASF file generated using VICON BodyLanguage
# -----------------------------------------------
:version 1.10
:name VICON
:units
  mass 1.0
  length 0.45
  angle deg
:documentation
   .ast/.asf automatically generated from VICON data using
   VICON BodyBuilder and BodyLanguage model FoxedUp or BRILLIANT.MOD
:root
   order TX TY TZ RX RY RZ
   axis XYZ
   position 0 0 0  
   orientation 0 0 0 
:bonedata
  begin
     id 1 
     name lhipjoint
     direction 0.661853 -0.702389 0.261917 
     length 2.64193 
     axis 0 0 0  XYZ
  end
  begin
     id 2 
     name lfemur
     direction 0.34202 -0.939693 0  
     length 7.01722  
     axis 0 0 20  XYZ
    dof rx ry rz
    limits (-160.0 20.0)
           (-70.0 70.0)
           (-60.0 70.0)
  end
  begin
     id 3 
     name ltibia
     direction 0.34202 -0.939693 0   
     length 8.25008   
     axis 0 0 20   XYZ
    dof rx
    limits (-10.0 170.0)
  end
  begin
     id 4 
     name lfoot
     direction 0.0709916 -0.195048 0.978221   
     length 2.31941   
     axis -90 7.62852e-016 20   XYZ
    dof rx rz
    limits (-45.0 90.0)
           (-70.0 20.0)
  end
  begin
     id 5 
     name ltoes
     direction 1.53586e-011 -4.22017e-011 1   
     length 1.16486   
     axis -90 7.62852e-016 20   XYZ
    dof rx
    limits (-90.0 20.0)
  end
  begin
     id 6 
     name rhipjoint
     direction -0.638185 -0.721362 0.268992   
     length 2.57244  
     axis 0 0 0  XYZ 
  end
  begin
     id 7 
     name rfemur
     direction -0.34202 -0.939693 0   
     length 7.07017   
     axis 0 0 -20   XYZ
    dof rx ry rz
    limits (-160.0 20.0)
           (-70.0 70.0)
           (-70.0 60.0)
  end
  begin
     id 8 
     name rtibia
     direction -0.34202 -0.939693 0   
     length 8.20386   
     axis 0 0 -20   XYZ
    dof rx
    limits (-10.0 170.0)
 end
 begin
     id 9 
     name rfoot
     direction -0.0822429 -0.225961 0.970658   
     length 2.32215  
     axis -90 -7.62852e-016 -20   XYZ
    dof rx rz
    limits (-45.0 90.0)
           (-20.0 70.0)
  end
  begin
     id 10 
     name rtoes
     direction -1.53597e-011 -4.21689e-011 1   
     length 1.16333   
     axis -90 -7.62852e-016 -20   XYZ
    dof rx
    limits (-90.0 20.0)
  end
  begin
     id 11 
     name lowerback
     direction -0.0131557 0.998589 -0.0514484   
     length 2.14993   
     axis 0 0 0   XYZ
    dof rx ry rz
    limits (-20.0 45.0)
           (-30.0 30.0)
           (-30.0 30.0)
  end
  begin
     id 12 
     name upperback
     direction -0.000776481 0.999993 0.00352685   
     length 2.15301   
     axis 0 0 0   XYZ
    dof rx ry rz
    limits (-20.0 45.0)
           (-30.0 30.0)
           (-30.0 30.0)
  end
  begin
     id 13 
     name thorax
     direction 0.00438186 0.999609 0.0276143   
     length 2.15424   
     axis 0 0 0   XYZ
    dof rx ry rz
    limits (-20.0 45.0)
           (-30.0 30.0)
           (-30.0 30.0)
  end
  begin
     id 14 
     name lowerneck
     direction -0.0488006 0.998094 0.0377807   
     length 1.90481   
     axis 0 0 0   XYZ
    dof rx ry rz
    limits (-20.0 45.0)
           (-30.0 30.0)
           (-30.0 30.0)
  end
  begin
     id 15 
     name upperneck
     direction 0.0443769 0.990702 -0.12861   
     length 1.91305   
     axis 0 0 0   XYZ
    dof rx ry rz
    limits (-20.0 45.0)
           (-30.0 30.0)
           (-30.0 30.0)
  end
  begin
     id 16
     name head
     direction 0.0165599 0.998647 -0.0492982  
     length 1.92369  
     axis 0 0 0   XYZ
    dof rx ry rz
    limits (-20.0 45.0)
           (-30.0 30.0)
           (-30.0 30.0)
  end
  begin
     id 17 
     name lclavicle
     direction 0.911936 0.410197 -0.0105506  
     length 3.52622  
     axis 0 0 0   XYZ
    dof ry rz
    limits (-20.0 10.0)
           (0.0 20.0)
  end
  begin
     id 18 
     name lhumerus
     direction 1 -4.48974e-011 -2.48591e-028   
     length 5.47651   
     axis 180 -30 -90   XYZ
    dof rx ry rz
    limits (-60.0 90.0)
           (-90.0 90.0)
           (-90.0 90.0)
  end
  begin
     id 19
     name lradius
     direction 1 -4.48938e-011 -4.40099e-027   
     length 3.09058   
     axis 180 -30 -90   XYZ
    dof rx
    limits (-10.0 170.0)
  end
  begin
     id 20
     name lwrist
     direction 1 -4.49042e-011 -2.99852e-027   
     length 1.54529   
     axis 1.95339e-015 90 90   XYZ
    dof ry
    limits (-180.0 0.0)
 end
  begin
     id 21 
     name lhand
     direction 1 -4.48815e-011 -5.98193e-027   
     length 0.771611   
     axis 3.82337e-015 90 90   XYZ
    dof rx rz
    limits (-90.0 90.0)
           (-45.0 45.0)
  end
  begin
     id 22 
     name lfingers
     direction 1 -4.49034e-011 -1.1993e-026   
     length 0.622093   
     axis 7.64668e-015 90 90   XYZ
    dof rx
    limits (0.0 90.0)
  end
  begin
     id 23
     name lthumb
     direction 0.707107 -6.34867e-011 0.707107   
     length 0.893204   
     axis -90 45 -1.62303e-014   XYZ
    dof rx rz
    limits (-45.0 45.0)
           (-45.0 45.0)
  end
  begin
     id 24 
     name rclavicle
     direction -0.93442 0.355634 -0.0195692   
     length 3.62463  
     axis 0 0 0   XYZ 
    dof ry rz
    limits (-10.0 20.0)
           (-20.0 0.0)
  end
  begin
     id 25 
     name rhumerus
     direction -1 -4.48957e-011 -1.19147e-027  
     length 5.14182   
     axis 180 30 90   XYZ
    dof rx ry rz
    limits (-90.0 60.0)
           (-90.0 90.0)
           (-90.0 90.0)
  end
  begin
     id 26 
     name rradius
     direction -1 -4.48952e-011 -3.81062e-027   
     length 3.35565   
     axis 180 30 90   XYZ
    dof rx
    limits (-10.0 170.0)
  end
  begin
     id 27 
     name rwrist
     direction -1 -4.48973e-011 -2.99621e-027   
     length 1.67782   
     axis 1.95339e-015 -90 -90   XYZ
    dof ry
    limits (-180.0 0.0)
  end
  begin
     id 28
     name rhand
     direction -1 -4.48895e-011 -5.98727e-027   
     length 0.801042   
     axis 3.82337e-015 -90 -90   XYZ
    dof rx rz
    limits (-90.0 90.0)
           (-45.0 45.0)
  end
  begin
     id 29
     name rfingers
     direction -1 -4.49065e-011 -1.19972e-026   
     length 0.645821   
     axis 7.64668e-015 -90 -90   XYZ
    dof rx
    limits (0.0 90.0)
  end
  begin
     id 30
     name rthumb
     direction -0.707107 -6.34957e-011 0.707107   
     length 0.927273   
     axis -90 -45 1.62303e-014   XYZ
    dof rx rz
    limits (-45.0 45.0)
           (-45.0 45.0)
  end
:hierarchy
  begin
    root lhipjoint rhipjoint lowerback
    lhipjoint lfemur
    lfemur ltibia
    ltibia lfoot
    lfoot ltoes
    rhipjoint rfemur
    rfemur rtibia
    rtibia rfoot
    rfoot rtoes
    lowerback upperback
    upperback thorax
    thorax lowerneck lclavicle rclavicle
    lowerneck upperneck
    upperneck head
    lclavicle lhumerus
    lhumerus lradius
    lradius lwrist
    lwrist lhand lthumb
    lhand lfingers
    rclavicle rhumerus
    rhumerus rradius
    rradius rwrist
    rwrist rhand rthumb
    rhand rfingers
  end

#!OML:ASF E:\Style4\Style4.ASF
:FULLY-SPECIFIED
:DEGREES
139
root 0.675374 17.9188 -2.36172 5.89742 0.189044 1.58828
lowerback 11.0932 2.77032 -1.06821
upperback 6.16113 3.55914 0.194673
thorax 0.134301 1.75006 0.417352
lowerneck -4.15191 -5.11618 -5.81168
upperneck -9.58378 -6.30265 6.8588
head -1.91945 -3.10664 3.24676
rclavicle -1.11319e-014 1.59028e-015
rhumerus 63.5529 -4.95776 -26.3071
rradius 53.637
rwrist -80.8532
rhand 1.27055 12.6085
rfingers 7.12502
rthumb 26.8068 -15.5116
lclavicle -1.11319e-014 1.59028e-015
lhumerus 73.8023 -0.163002 27.9599
lradius 53.8994
lwrist 67.4417
lhand 6.59339 24.399
lfingers 7.12502
lthumb 31.8886 51.6272
rfemur -26.0793 -0.911565 13.4822
rtibia 33.601
rfoot -11.5791 -6.46903
rtoes -19.63
lfemur -22.808 -0.404217 -20.1825
ltibia 26.8244
lfoot -10.2026 0.739786
ltoes -8.82332
140
root 0.674388 17.9084 -2.37561 5.9862 0.221693 1.55392
lowerback 11.1963 2.7712 -1.04051
upperback 6.19501 3.5614 0.20661
thorax 0.114815 1.75153 0.409875
lowerneck -4.05043 -5.14506 -5.90104
upperneck -9.93448 -6.33017 6.91877
head -2.04751 -3.12001 3.29843
rclavicle 6.75868e-015 5.1684e-015
rhumerus 63.4471 -4.52699 -26.3432
rradius 53.5562
rwrist -80.9379
rhand 1.331 12.4945
rfingers 7.12502
rthumb 26.8646 -15.6168
lclavicle 6.75868e-015 5.1684e-015
lhumerus 73.5371 -0.528325 27.9166
lradius 53.8858
lwrist 67.2619
lhand 7.19964 24.3717
lfingers 7.12502
lthumb 32.4657 51.4831
rfemur -26.3483 -0.896448 13.433
rtibia 33.8663
rfoot -11.6249 -6.22105
rtoes -19.57
lfemur -23.1636 -0.321753 -20.1501
ltibia 27.1747
lfoot -10.2462 0.605476
ltoes -9.17431
141
root 0.672985 17.8968 -2.3887 6.03933 0.279755 1.49024
lowerback 11.3363 2.76784 -0.951507
upperback 6.23113 3.56342 0.213366
thorax 0.0816953 1.75445 0.361141
lowerneck -3.8766 -5.18073 -6.02084
upperneck -10.3193 -6.36541 7.03616
head -2.19735 -3.13832 3.37985
rclavicle 2.32578e-014 -8.74653e-015
rhumerus 63.279 -4.12978 -26.4308
rradius 53.4723
rwrist -81.0195
rhand 1.35268 12.3171
rfingers 7.12502
rthumb 26.8854 -15.791
lclavicle 2.32578e-014 -8.74653e-015
lhumerus 73.3359 -0.887351 27.6945
lradius 54.0513
lwrist 67.654
lhand 7.08518 24.6986
lfingers 7.12502
lthumb 32.3568 51.8324
rfemur -26.5702 -0.953624 13.4503
rtibia 34.1167
rfoot -11.5829 -6.04402
rtoes -19.9546
lfemur -23.4837 -0.288192 -20.0781
ltibia 27.5321
lfoot -10.3147 0.500242
ltoes -9.36994
142
root 0.668145 17.8871 -2.39997 6.10047 0.336182 1.50352
lowerback 11.4497 2.76377 -0.951866
upperback 6.27856 3.55598 0.165313
thorax 0.0732391 1.75136 0.308443
lowerneck -3.88259 -5.2196 -5.94429
upperneck -10.5457 -6.4086 7.07611
head -2.26993 -3.16354 3.38651
rclavicle 5.04913e-014 0
rhumerus 62.91 -3.77333 -26.488
rradius 53.6496
rwrist -81.2033
rhand 1.28791 12.1573
rfingers 7.12502
rthumb 26.8234 -15.9603
lclavicle 5.04913e-014 0
lhumerus 73.139 -1.24336 27.3616
lradius 54.5594
lwrist 68.7953
lhand 5.67089 25.5064
lfingers 7.12502
lthumb 31.0097 52.906
rfemur -26.7817 -0.995163 13.415
rtibia 34.3438
rfoot -11.6157 -5.93193
rtoes -20.2369
lfemur -23.8024 -0.259296 -20.0739
ltibia 27.8749
lfoot -10.3822 0.363253
ltoes -9.03524
143
root 0.659766 17.8761 -2.41163 6.18862 0.420805 1.45278
lowerback 11.5363 2.76506 -0.899146
upperback 6.33424 3.56144 0.13837
thorax 0.0894926 1.75558 0.248083
lowerneck -4.03541 -5.29622 -5.88538
upperneck -10.6764 -6.49833 7.10967
head -2.28077 -3.2093 3.3846
rclavicle 6.10269e-014 -2.3059e-014
rhumerus 62.5537 -3.43509 -26.5137
rradius 53.8355
rwrist -81.4474
rhand 1.09201 12.1269
rfingers 7.12502
rthumb 26.6359 -16.0194
lclavicle 6.10269e-014 -2.3059e-014
lhumerus 72.9412 -1.58113 27.1145
lradius 54.9528
lwrist 69.3789
lhand 4.99136 25.8729
lfingers 7.12502
lthumb 30.3617 53.3941
rfemur -27.0059 -1.08626 13.5009
rtibia 34.5504
rfoot -11.7241 -5.88933
rtoes -20.3172
lfemur -24.1536 -0.205956 -19.9889
ltibia 28.2057
lfoot -10.4174 0.196684
ltoes -8.73441
144
root 0.653539 17.8665 -2.42249 6.2607 0.532015 1.3828
lowerback 11.6536 2.75157 -0.772935
upperback 6.35718 3.55425 0.112009
thorax 0.0594421 1.75546 0.146204
lowerneck -4.06152 -5.36654 -5.81554
upperneck -10.8425 -6.58762 7.11013
head -2.32758 -3.2563 3.37565
rclavicle 2.76311e-014 -9.14409e-015
rhumerus 62.3119 -2.99444 -26.6138
rradius 53.9192
rwrist -81.7269
rhand 0.869874 12.106
rfingers 7.12502
rthumb 26.4233 -16.0723
lclavicle 2.76311e-014 -9.14409e-015
lhumerus 72.7455 -1.89733 26.8791
lradius 55.047
lwrist 69.2632
lhand 5.42819 25.6442
lfingers 7.12502
lthumb 30.7783 53.0877
rfemur -27.1806 -1.29825 13.6381
rtibia 34.7287
rfoot -11.8728 -5.84163
rtoes -20.0832
lfemur -24.4743 -0.200366 -19.8921
ltibia 28.5291
lfoot -10.4295 0.0399528
ltoes -8.47623
145
root 0.647285 17.8536 -2.43341 6.30809 0.645148 1.4457
lowerback 11.7902 2.7508 -0.779219
upperback 6.37142 3.55054 0.0699419
thorax 0.00317283 1.75426 0.100304
lowerneck -3.97231 -5.45053 -5.80507
upperneck -11.0565 -6.69882 7.11261
head -2.40799 -3.3137 3.38463
rclavicle 1.05356e-014 6.75868e-015
rhumerus 62.0486 -2.47978 -26.7206
rradius 54.0522
rwrist -81.9911
rhand 0.396632 12.0368
rfingers 7.12502
rthumb 25.9702 -16.2089
lclavicle 1.05356e-014 6.75868e-015
lhumerus 72.5693 -2.28503 26.6816
lradius 55.1117
lwrist 69.2097
lhand 5.75533 25.3344
lfingers 7.12502
lthumb 31.0902 52.7187
rfemur -27.3185 -1.59676 13.6539
rtibia 34.8775
rfoot -12.0491 -5.79169
rtoes -19.4827
lfemur -24.7716 -0.225806 -19.9421
ltibia 28.8665
lfoot -10.5063 -0.104246
ltoes -8.07173
146
root 0.637429 17.8414 -2.44541 6.36561 0.758048 1.46048
lowerback 11.9116 2.75039 -0.786721
upperback 6.40554 3.54764 0.0495862
thorax -0.0255835 1.75299 0.0787878
lowerneck -3.95906 -5.52507 -5.78857
upperneck -11.278 -6.79143 7.13894
head -2.47829 -3.36153 3.39833
rclavicle -5.1684e-015 1.98785e-015
rhumerus 61.8443 -1.98381 -26.809
rradius 54.1451
rwrist -82.1045
rhand -0.0377959 12.0158
rfingers 7.12502
rthumb 25.5542 -16.2901
lclavicle -5.1684e-015 1.98785e-015
lhumerus 72.3824 -2.68511 26.5902
lradius 55.2416
lwrist 69.1352
lhand 5.93494 25.371
lfingers 7.12502
lthumb 31.2613 52.7224
rfemur -27.4872 -1.84533 13.7532
rtibia 35.0067
rfoot -12.2119 -5.88682
rtoes -19.1441
lfemur -25.0973 -0.271474 -19.9229
ltibia 29.2041
lfoot -10.6404 -0.209498
ltoes -8.53798
147
root 0.62779 17.8299 -2.45546 6.46318 0.908693 1.42973
lowerback 11.9521 2.72006 -0.717743
upperback 6.45351 3.51424 0.0223069
thorax 0.00881725 1.7384 0.0156092
lowerneck -4.11081 -5.5846 -5.84734
upperneck -11.3555 -6.84869 7.29715
head -2.46608 -3.38992 3.45928
rclavicle 2.46493e-014 -1.35174e-014
rhumerus 61.6461 -1.55664 -26.8446
rradius 54.2863
rwrist -82.2177
rhand -0.316193 12.0255
rfingers 7.12502
rthumb 25.2875 -16.3184
lclavicle 2.46493e-014 -1.35174e-014
lhumerus 72.1477 -2.95561 26.5289
lradius 55.2762
lwrist 68.609
lhand 6.83371 25.2547
lfingers 7.12502
lthumb 32.1174 52.437
rfemur -27.6739 -2.18775 13.9386
rtibia 35.1199
rfoot -12.3293 -6.02538
rtoes -19.1569
lfemur -25.4655 -0.367895 -19.8488
ltibia 29.5456
lfoot -10.7582 -0.333364
ltoes -9.09279
148
root 0.616979 17.8165 -2.46469 6.54485 1.00826 1.45604
lowerback 12.0385 2.71616 -0.692589
upperback 6.47443 3.51009 -0.031514
thorax -0.0108058 1.73788 -0.0571483
lowerneck -4.12372 -5.65429 -5.97665
upperneck -11.4682 -6.91773 7.54307
head -2.48452 -3.42572 3.57068
rclavicle -2.64384e-014 1.78906e-014
rhumerus 61.3417 -1.09698 -26.753
rradius 54.5465
rwrist -82.502
rhand -0.673683 12.2202
rfingers 7.12502
rthumb 24.9449 -16.1716
lclavicle -2.64384e-014 1.78906e-014
lhumerus 71.8978 -3.30252 26.4386
lradius 55.3465
lwrist 68.2647
lhand 7.41246 25.0509
lfingers 7.12502
lthumb 32.6682 52.1206
rfemur -27.8278 -2.51772 14.0758
rtibia 35.1981
rfoot -12.5056 -6.11187
rtoes -18.4349
lfemur -25.8092 -0.420915 -19.8412
ltibia 29.9006
lfoot -10.7573 -0.307256
ltoes -9.07055
149
root 0.604286 17.8026 -2.47415 6.59519 1.0933 1.50578
lowerback 12.1761 2.71965 -0.700876
upperback 6.49213 3.51144 -0.0927553
thorax -0.0627737 1.73941 -0.122267
lowerneck -4.06079 -5.7452 -6.04347
upperneck -11.6335 -7.02388 7.71877
head -2.53578 -3.48203 3.65151
rclavicle -5.32743e-014 1.59028e-014
rhumerus 61.0983 -0.60507 -26.7751
rradius 54.6975
rwrist -82.5924
rhand -0.934695 12.3643
rfingers 7.12502
rthumb 24.6948 -16.062
lclavicle -5.32743e-014 1.59028e-014
lhumerus 71.6386 -3.71956 26.2264
lradius 55.6699
lwrist 68.8327
lhand 6.67849 25.4392
lfingers 7.12502
lthumb 31.9696 52.6512
rfemur -27.9161 -2.79452 14.1791
rtibia 35.2627
rfoot -12.8143 -6.18155
rtoes -17.3134
lfemur -26.1045 -0.446454 -19.8552
ltibia 30.2361
lfoot -10.8166 -0.294157
ltoes -9.10413
150
root 0.589579 17.789 -2.48415 6.65857 1.24714 1.47829
lowerback 12.2841 2.68631 -0.637145
upperback 6.50587 3.47243 -0.145234
thorax -0.0992452 1.72243 -0.212266
lowerneck -4.03221 -5.80893 -5.99311
upperneck -11.7532 -7.10284 7.78644
head -2.57483 -3.52614 3.67063
rclavicle -1.09332e-014 -1.59028e-015
rhumerus 60.9115 -0.110596 -26.9894
rradius 54.8257
rwrist -82.5428
rhand -1.18636 12.3562
rfingers 7.12502
rthumb 24.4536 -16.103
lclavicle -1.09332e-014 -1.59028e-015
lhumerus 71.3529 -4.0784 25.8038
lradius 56.0678
lwrist 69.838
lhand 5.53789 26.0314
lfingers 7.12502
lthumb 30.8829 53.4551
rfemur -28.0115 -3.0499 14.3784
rtibia 35.3266
rfoot -13.1573 -6.34755
rtoes -16.6485
lfemur -26.4223 -0.500122 -19.7683
ltibia 30.5515
lfoot -10.8848 -0.367546
ltoes -8.8449
